<svg xmlns="http://www.w3.org/2000/svg" viewBox="0 0 1310 520" width="1310" height="520"><defs><style>
.wall{fill:none;stroke:#54E0C7;stroke-opacity:.55;stroke-width:6;stroke-linejoin:round}
.room{stroke:#B9C7D2;stroke-opacity:.18;stroke-width:2}
.r-bed{fill:#8AA6FF;fill-opacity:.07}
.r-bath{fill:#54E0C7;fill-opacity:.08}
.r-social{fill:#E88BD0;fill-opacity:.06}
.r-util{fill:#FFFFFF;fill-opacity:.03}
.r-garage{fill:#FFFFFF;fill-opacity:.015}
.lbl{font-family:system-ui,-apple-system,sans-serif;font-size:24px;font-weight:600;letter-spacing:.14em;fill:#8FA3B0}
.lbs{font-family:system-ui,-apple-system,sans-serif;font-size:18px;font-weight:500;letter-spacing:.10em;fill:#5F7280}
.lbxs{font-family:system-ui,-apple-system,sans-serif;font-size:14px;font-weight:500;letter-spacing:.08em;fill:#5F7280}
.fix{fill:none;stroke:#7C8F9C;stroke-opacity:.5;stroke-width:2.4}
.car{fill:#8AA6FF;fill-opacity:.10;stroke:#8AA6FF;stroke-opacity:.35;stroke-width:2.4}
</style></defs><rect x="0" y="0" width="1310" height="520" rx="32" fill="#0B1118"/><rect x="28" y="24" width="1254" height="472" rx="16" fill="#0E151D"/><rect x="46" y="92" width="384" height="396" class="room r-social"/><rect x="430" y="92" width="253" height="396" class="room r-social"/><rect x="688" y="152" width="269" height="344" class="room r-util"/><rect x="845" y="26" width="115" height="80" class="room r-bath"/><rect x="957" y="193" width="317" height="295" class="room r-garage"/><rect x="190" y="30" width="570" height="55" rx="6" class="fix"/><line x1="190" y1="57" x2="760" y2="57" class="fix"/><rect x="46" y="60" width="16" height="130" rx="4" class="fix"/><rect x="985" y="250" width="270" height="180" rx="24" class="car"/><circle cx="1035" cy="250" r="8" class="fix"/><circle cx="1205" cy="250" r="8" class="fix"/><rect x="1080" y="470" width="110" height="16" rx="4" class="fix"/><rect x="716" y="190" width="52" height="280" rx="4" class="fix"/><rect x="28" y="24" width="1254" height="472" rx="16" class="wall"/><text x="129" y="88" text-anchor="start" class="lbs">FRONT DOOR</text><text x="129" y="110" text-anchor="start" class="lbs">DOORBELL</text><text x="478" y="47" text-anchor="middle" class="lbs">STAIRS</text><text x="900" y="70" text-anchor="middle" class="lbs">BATH</text><text x="236" y="269" text-anchor="middle" class="lbl">LIVING</text><text x="541" y="269" text-anchor="middle" class="lbl">DINING</text><text x="830" y="324" text-anchor="middle" class="lbl" transform="rotate(-90 830 324)">KITCHEN</text><text x="1115" y="248" text-anchor="middle" class="lbl">GARAGE</text><text x="1120" y="348" text-anchor="middle" class="lbl">SHADOWFAX</text><text x="1140" y="457" text-anchor="middle" class="lbs">CHARGER</text><text x="555" y="505" text-anchor="middle" class="lbs">BACKYARD DOOR</text></svg>